<svg xmlns="http://www.w3.org/2000/svg" width="100" height="106" fill="none"><path fill="#163152" d="M67.98 80.68C59.32 85.25 19.29 91 19.29 91s30.12-1.59 48.28-4.17c18.15-2.59 28.05-24.25 28.05-24.25L6.1 72.33l79.63-3.38s-9.08 7.16-17.74 11.73ZM50.86 6.89c21.31 32.26 1.23 53.78 1.23 53.78C66.12 36.03 50.86 6.9 50.86 6.9Zm-4.77 57.5 39.78-4.36S95.49 20.16 43.84 0c0 0 19.98 36.2 2.25 64.38ZM18.47 64.38C32.7 47.9 40.75 16.5 40.75 16.5c-3.1 31.6-22.28 47.9-22.28 47.9ZM42.19 4.97s-9.9 37.55-28.67 62.99l30.32-3.58L42.2 4.97Z"/><path fill="#163152" d="M38.07 74.32 6.09 76.8l1.03 2.49 30.95-4.97ZM34.35 81.87l-24.24 3.95 1.03 2.49 23.21-6.44ZM8.36 81.77l1.03 2.48 34.45-7.45-35.48 4.97ZM11.67 96.31h-.21c-.3 0-.57.08-.84.23a2.1 2.1 0 0 0-.63.56l-2.97 4.4v3.28c.01.23.1.44.28.61.18.16.4.24.67.24h.18v.16H3.5v-.16h.2c.25 0 .47-.08.65-.24a.88.88 0 0 0 .28-.61v-3.28l-2.95-4.4a1.67 1.67 0 0 0-.64-.56 1.62 1.62 0 0 0-.83-.23H0v-.16h5.07v.16h-.18c-.22 0-.37.07-.47.21a.62.62 0 0 0-.13.34c0 .09.02.17.06.24l2.22 3.7 2.25-3.7a.59.59 0 0 0 .05-.24c0-.1-.05-.2-.15-.34-.09-.14-.24-.2-.45-.2H8.1v-.17h3.57v.16ZM20.89 105.63h.13v.16h-4.9v-.16h.13c.23 0 .39-.06.49-.2a.6.6 0 0 0 .15-.35c0-.1-.03-.22-.07-.33l-.65-1.48h-3.54l-.66 1.5a.87.87 0 0 0-.07.33c0 .1.05.23.15.35.11.12.28.18.5.18h.13v.16H9.35v-.16h.13c.24 0 .47-.07.7-.2.24-.15.43-.36.57-.64l3.45-7.13c.5-1.06.75-1.71.77-1.96h.15l4.47 9.03c.14.31.33.54.57.7.24.13.48.2.73.2Zm-7.97-2.99h2.97l-1.47-3.35-1.5 3.35ZM26.84 106c-1.87-.01-3.33-.45-4.4-1.33a4.55 4.55 0 0 1-1.6-3.7c0-1.57.53-2.8 1.58-3.7 1.07-.88 2.54-1.33 4.42-1.33 1.47 0 2.72.25 3.75.74v2.56h-.11a3.63 3.63 0 0 0-1.29-2.04 3.7 3.7 0 0 0-2.18-.61c-1.18 0-2.08.39-2.7 1.17a4.93 4.93 0 0 0-.94 3.18c0 1.34.3 2.4.92 3.2a3.1 3.1 0 0 0 2.58 1.22c.8 0 1.44-.12 1.96-.36a2.7 2.7 0 0 0 1.21-1.12c.3-.52.53-1.23.67-2.12h.12l.2 2.42c-.35.55-.88.99-1.59 1.32-.7.33-1.57.5-2.6.5ZM43.41 105.63h.18v.16h-4.58v-.16h.16c.26 0 .48-.08.66-.24a.79.79 0 0 0 .26-.61v-3.47h-4.38v3.47c0 .25.1.45.28.61.18.16.39.24.63.24h.19v.16h-4.6v-.16h.18c.25 0 .47-.08.65-.24a.82.82 0 0 0 .27-.61v-7.61a.77.77 0 0 0-.27-.6.9.9 0 0 0-.65-.26h-.19v-.16h4.6v.16h-.18a.91.91 0 0 0-.63.25.82.82 0 0 0-.28.59v3.52h4.38v-3.5a.79.79 0 0 0-.45-.74 1 1 0 0 0-.47-.12h-.16v-.16h4.58v.16h-.18a.91.91 0 0 0-.63.25.84.84 0 0 0-.29.6v7.64c.01.33.16.57.45.72a1 1 0 0 0 .47.11ZM53.8 98.43v-.14c0-.46-.13-.82-.4-1.1-.27-.26-.64-.4-1.12-.41h-1.93v8.02c0 .23.1.43.28.59.18.16.39.24.64.24h.18v.16h-4.6v-.16H47c.26 0 .48-.08.65-.24a.79.79 0 0 0 .27-.61v-8h-1.92c-.49.01-.86.15-1.13.42-.27.27-.4.63-.4 1.09v.14h-.17V95.9a6.88 6.88 0 0 0 1.75.24h6.16a6.12 6.12 0 0 0 1.75-.24v2.53h-.17ZM64.87 106c-1.87-.01-3.34-.45-4.4-1.33a4.55 4.55 0 0 1-1.6-3.7c0-1.57.52-2.8 1.58-3.7 1.06-.88 2.54-1.33 4.42-1.33 1.46 0 2.71.25 3.75.74v2.56h-.12a3.63 3.63 0 0 0-1.28-2.04 3.7 3.7 0 0 0-2.19-.61c-1.18 0-2.08.39-2.7 1.17a4.93 4.93 0 0 0-.93 3.18c0 1.34.3 2.4.92 3.2a3.1 3.1 0 0 0 2.58 1.22c.79 0 1.44-.12 1.95-.36a2.7 2.7 0 0 0 1.22-1.12c.3-.52.52-1.23.67-2.12h.11l.2 2.42c-.34.55-.87.99-1.58 1.32-.7.33-1.57.5-2.6.5ZM70.23 105.8v-.17h.2c.26 0 .47-.08.63-.24a.77.77 0 0 0 .27-.6v-7.62a.77.77 0 0 0-.27-.6.88.88 0 0 0-.63-.26h-.2v-.16h4.64v.16h-.2a.94.94 0 0 0-.65.25.79.79 0 0 0-.27.6v7.99h2a2.73 2.73 0 0 0 1.75-.61c.48-.4.83-.98 1.05-1.7h.19l-.66 2.95h-7.85ZM90.06 96.31h-.23a.77.77 0 0 0-.54.2.62.62 0 0 0-.23.46v5.32a3.5 3.5 0 0 1-1.1 2.73c-.74.65-1.83.98-3.29.98a5.32 5.32 0 0 1-3.38-.96 3.28 3.28 0 0 1-1.2-2.72V97a.6.6 0 0 0-.24-.48.77.77 0 0 0-.53-.2h-.23v-.16h4.38v.16h-.23a.77.77 0 0 0-.53.2.62.62 0 0 0-.22.48v5.22c0 .98.23 1.76.7 2.31a2.5 2.5 0 0 0 2 .84c.86 0 1.53-.27 2.02-.79.5-.52.75-1.25.75-2.18v-5.4a.64.64 0 0 0-.24-.48.77.77 0 0 0-.53-.2h-.22v-.16h3.09v.16ZM99.22 98.55a2 2 0 0 1-.27 1.04c-.35.58-.87.9-1.57.95.75.05 1.37.3 1.87.77.5.45.75 1.03.75 1.73 0 1.39-.86 2.25-2.58 2.6-.5.1-1.03.15-1.6.15h-4.84v-.16h.18c.26 0 .47-.08.64-.24a.84.84 0 0 0 .28-.61v-7.61a.8.8 0 0 0-.57-.8.96.96 0 0 0-.35-.06h-.18v-.16h4.47c2.51 0 3.77.8 3.77 2.4Zm-1.92 4.35c0-.5-.1-.9-.32-1.24-.39-.64-1.06-.96-2.02-.96h-.03v-.14c.53 0 .97-.16 1.3-.45.33-.3.5-.77.5-1.4 0-1.29-.6-1.93-1.82-1.93h-.46v8.37h.66c.65 0 1.17-.18 1.57-.55.41-.36.62-.93.62-1.7Z"/></svg>