<svg xmlns="http://www.w3.org/2000/svg" width="18" height="18" fill="none"><path fill="#163152" d="M9 6.3a2.7 2.7 0 1 0 0 5.4 2.7 2.7 0 0 0 0-5.4Zm0-1.8a4.5 4.5 0 1 1 0 9 4.5 4.5 0 0 1 0-9Zm5.85-.22a1.12 1.12 0 1 1-2.25 0 1.12 1.12 0 0 1 2.25 0ZM9 1.8c-2.23 0-2.59 0-3.63.05-.7.04-1.18.13-1.61.3-.4.15-.68.33-.98.63-.28.28-.5.6-.63.98-.17.44-.27.9-.3 1.61-.04 1-.05 1.34-.05 3.63 0 2.23 0 2.59.05 3.63.04.7.13 1.18.3 1.61.15.4.33.68.63.98.3.3.59.48.97.63.45.17.92.27 1.62.3 1 .04 1.34.05 3.63.05 2.23 0 2.59 0 3.63-.05.7-.04 1.17-.13 1.61-.3.4-.15.68-.33.98-.63.3-.3.48-.59.63-.97.17-.45.27-.92.3-1.62.04-1 .05-1.34.05-3.63 0-2.23 0-2.59-.05-3.63a4.9 4.9 0 0 0-.3-1.61c-.14-.37-.35-.7-.63-.98a2.6 2.6 0 0 0-.98-.63 4.89 4.89 0 0 0-1.61-.3c-1-.04-1.34-.05-3.63-.05ZM9 0c2.45 0 2.75 0 3.71.05s1.61.2 2.18.42c.6.23 1.1.54 1.6 1.04.46.45.81 1 1.04 1.6.22.57.37 1.22.42 2.18.04.96.05 1.26.05 3.71s0 2.75-.05 3.71-.2 1.61-.42 2.18a4.4 4.4 0 0 1-1.04 1.6c-.45.46-1 .81-1.6 1.04-.57.22-1.22.37-2.18.42-.96.04-1.26.05-3.71.05s-2.75 0-3.71-.05a6.65 6.65 0 0 1-2.19-.42 4.4 4.4 0 0 1-1.59-1.04c-.46-.45-.81-1-1.04-1.6a6.63 6.63 0 0 1-.42-2.18C.01 11.75 0 11.45 0 9s0-2.75.05-3.71.2-1.61.42-2.19a4.4 4.4 0 0 1 1.04-1.59c.45-.46 1-.81 1.6-1.04A6.63 6.63 0 0 1 5.29.05C6.25.01 6.55 0 9 0Z"/></svg>