<svg xmlns="http://www.w3.org/2000/svg" width="64" height="68" fill="none"><path fill="#163152" d="M43.5 51.76c-5.54 2.93-31.15 6.62-31.15 6.62s19.27-1.02 30.9-2.67C54.85 54.05 61.2 40.16 61.2 40.16L3.9 46.4l50.96-2.17s-5.8 4.6-11.35 7.53ZM32.55 4.42c13.64 20.7.79 34.5.79 34.5 8.98-15.8-.8-34.5-.8-34.5ZM29.5 41.3l25.46-2.8S61.12 12.94 28.06 0c0 0 12.79 23.22 1.44 41.3ZM11.82 41.3c9.11-10.58 14.26-30.72 14.26-30.72C24.1 30.85 11.82 41.3 11.82 41.3ZM27 3.2s-6.33 24.09-18.35 40.4l19.4-2.29L27 3.2Z"/><path fill="#163152" d="M24.36 47.68 3.9 49.27l.66 1.6 19.8-3.2ZM21.99 52.52 6.47 55.06l.66 1.6L22 52.51ZM5.35 52.46l.66 1.59 22.05-4.78-22.71 3.19ZM7.47 61.79h-.14c-.18 0-.36.04-.53.14-.17.1-.3.22-.4.36l-1.9 2.82v2.1c0 .16.06.29.17.4.12.1.26.15.43.15h.12v.1H2.23v-.1h.13a.6.6 0 0 0 .41-.15.56.56 0 0 0 .19-.4v-2.1l-1.9-2.82c-.1-.15-.23-.27-.4-.36-.16-.1-.34-.14-.53-.14H0v-.1h3.24v.1h-.11c-.14 0-.24.04-.3.13a.4.4 0 0 0-.09.22c0 .05.02.1.05.15l1.42 2.37 1.44-2.37.03-.15c0-.07-.03-.14-.1-.22-.06-.09-.15-.13-.29-.13h-.1v-.1h2.28v.1ZM13.37 67.76h.08v.1h-3.13v-.1h.08c.14 0 .25-.04.31-.12.07-.08.1-.16.1-.23a.61.61 0 0 0-.05-.21l-.41-.95H8.09l-.43.96a.56.56 0 0 0-.04.21c0 .07.03.15.1.23.06.08.17.11.31.11h.09v.1H5.98v-.1h.09c.15 0 .3-.04.45-.13a.97.97 0 0 0 .36-.4l2.2-4.58c.32-.68.49-1.1.5-1.26h.1l2.86 5.8c.09.2.21.34.36.44.16.09.31.13.47.13Zm-5.1-1.91h1.9l-.94-2.16-.96 2.16ZM17.18 68c-1.2 0-2.14-.3-2.82-.86a2.92 2.92 0 0 1-1.02-2.37c0-1 .33-1.8 1.01-2.37a4.28 4.28 0 0 1 2.83-.85c.94 0 1.74.16 2.4.47v1.64h-.08a2.33 2.33 0 0 0-.82-1.3c-.37-.27-.83-.4-1.4-.4-.75 0-1.33.25-1.72.75-.4.5-.6 1.18-.6 2.04 0 .86.2 1.55.59 2.05.4.53.95.79 1.65.79.5 0 .92-.08 1.25-.23.33-.15.59-.4.78-.72.19-.34.33-.79.42-1.36h.08l.13 1.56c-.22.35-.56.63-1.02.84-.45.21-1 .32-1.66.32ZM27.78 67.76h.12v.1h-2.93v-.1h.1a.6.6 0 0 0 .42-.15.5.5 0 0 0 .17-.4V65h-2.8v2.23c0 .15.06.29.17.39.12.1.25.15.4.15h.13v.1H20.6v-.1h.12a.6.6 0 0 0 .41-.15.53.53 0 0 0 .18-.4v-4.88a.5.5 0 0 0-.18-.38.58.58 0 0 0-.41-.16h-.12v-.1h2.95v.1h-.12c-.16 0-.3.05-.4.15a.53.53 0 0 0-.19.38v2.26h2.8v-2.25a.5.5 0 0 0-.28-.47.64.64 0 0 0-.3-.07h-.1v-.1h2.93v.1h-.12c-.15 0-.29.05-.4.15a.54.54 0 0 0-.18.4v4.89c0 .21.1.36.28.46.1.05.2.07.3.07ZM34.43 63.15v-.1c0-.3-.08-.53-.25-.7a1 1 0 0 0-.72-.26h-1.24v5.14c.01.15.07.28.18.38.12.1.25.15.41.15h.12v.1h-2.95v-.1h.1a.6.6 0 0 0 .42-.15.5.5 0 0 0 .18-.4V62.1h-1.23c-.32 0-.56.1-.73.26a.95.95 0 0 0-.25.7v.1h-.11v-1.63a4.4 4.4 0 0 0 1.12.15h3.94a3.91 3.91 0 0 0 1.12-.15v1.63h-.1ZM41.51 68c-1.2 0-2.13-.3-2.81-.86a2.92 2.92 0 0 1-1.03-2.37c0-1 .34-1.8 1.02-2.37a4.28 4.28 0 0 1 2.82-.85c.94 0 1.74.16 2.4.47v1.64h-.07a2.33 2.33 0 0 0-.82-1.3c-.37-.27-.84-.4-1.4-.4-.75 0-1.33.25-1.73.75-.4.5-.6 1.18-.6 2.04 0 .86.2 1.55.6 2.05.4.53.95.79 1.65.79.5 0 .92-.08 1.24-.23.33-.15.6-.4.78-.72.2-.34.34-.79.43-1.36h.08l.12 1.56c-.22.35-.56.63-1.01.84-.45.21-1 .32-1.67.32ZM44.95 67.87v-.1h.13c.16 0 .3-.06.4-.16a.5.5 0 0 0 .17-.38v-4.9a.5.5 0 0 0-.17-.38.56.56 0 0 0-.4-.16h-.13v-.1h2.96v.1h-.12a.6.6 0 0 0-.42.15.5.5 0 0 0-.17.4v5.11h1.28c.44 0 .81-.13 1.12-.39.3-.26.53-.62.67-1.09h.12l-.42 1.9h-5.02ZM57.64 61.79h-.15a.5.5 0 0 0-.34.12.4.4 0 0 0-.15.3v3.41c0 .74-.24 1.33-.7 1.75-.48.42-1.18.63-2.1.63a3.4 3.4 0 0 1-2.18-.62 2.1 2.1 0 0 1-.76-1.74v-3.42a.39.39 0 0 0-.15-.31.5.5 0 0 0-.35-.12h-.14v-.1h2.8v.1h-.15a.5.5 0 0 0-.34.12.4.4 0 0 0-.14.3v3.36c0 .63.15 1.12.45 1.48.3.36.73.54 1.28.54s.98-.17 1.3-.5c.31-.34.47-.81.47-1.4v-3.47a.4.4 0 0 0-.15-.31.5.5 0 0 0-.34-.12h-.14v-.1h1.98v.1ZM63.5 63.22c0 .25-.06.48-.17.67a1.2 1.2 0 0 1-1 .6c.47.04.87.2 1.19.5.32.29.48.66.48 1.11 0 .89-.55 1.45-1.65 1.67-.32.07-.66.1-1.03.1h-3.1v-.1h.12c.17 0 .3-.06.4-.16.12-.1.18-.24.2-.4v-4.88a.52.52 0 0 0-.37-.5.62.62 0 0 0-.23-.04h-.11v-.1h2.86c1.6 0 2.4.5 2.4 1.53Zm-1.23 2.8c0-.32-.07-.59-.2-.8-.25-.41-.68-.62-1.3-.62h-.01v-.1c.34 0 .61-.09.83-.28.21-.2.32-.5.32-.9 0-.82-.39-1.23-1.17-1.23h-.3v5.36h.43c.42 0 .75-.11 1-.35.27-.23.4-.6.4-1.09Z"/></svg>